<svg viewBox="0 0 420 130" xmlns="http://www.w3.org/2000/svg" font-family="sans-serif"><rect width="420" height="130" rx="12" fill="#1c1c2e"/><text x="210" y="16" text-anchor="middle" font-size="10" fill="#94a3b8" font-weight="600">CT-klemmen op de inkomende kabels (optioneel)</text><line x1="30" y1="45" x2="390" y2="45" stroke="#f97316" stroke-width="5" stroke-linecap="round"/><text x="15" y="49" font-size="9" fill="#f97316" font-weight="700">L1</text><ellipse cx="140" cy="45" rx="14" ry="9" fill="none" stroke="#94a3b8" stroke-width="2"/><line x1="140" y1="36" x2="140" y2="20" stroke="#94a3b8" stroke-width="1.5" stroke-dasharray="3,2"/><rect x="112" y="11" width="56" height="14" rx="4" fill="#1e293b" stroke="#475569" stroke-width="1"/><text x="140" y="21" text-anchor="middle" font-size="7.5" fill="#94a3b8">sensor L1 (A)</text><line x1="30" y1="78" x2="390" y2="78" stroke="#fbbf24" stroke-width="5" stroke-linecap="round"/><text x="15" y="82" font-size="9" fill="#fbbf24" font-weight="700">L2</text><ellipse cx="210" cy="78" rx="14" ry="9" fill="none" stroke="#94a3b8" stroke-width="2"/><line x1="210" y1="69" x2="210" y2="53" stroke="#94a3b8" stroke-width="1.5" stroke-dasharray="3,2"/><rect x="182" y="44" width="56" height="14" rx="4" fill="#1e293b" stroke="#475569" stroke-width="1"/><text x="210" y="54" text-anchor="middle" font-size="7.5" fill="#94a3b8">sensor L2 (A)</text><line x1="30" y1="111" x2="390" y2="111" stroke="#4ade80" stroke-width="5" stroke-linecap="round"/><text x="15" y="115" font-size="9" fill="#4ade80" font-weight="700">L3</text><ellipse cx="280" cy="111" rx="14" ry="9" fill="none" stroke="#94a3b8" stroke-width="2"/><line x1="280" y1="102" x2="280" y2="86" stroke="#94a3b8" stroke-width="1.5" stroke-dasharray="3,2"/><rect x="252" y="77" width="56" height="14" rx="4" fill="#1e293b" stroke="#475569" stroke-width="1"/><text x="280" y="87" text-anchor="middle" font-size="7.5" fill="#94a3b8">sensor L3 (A)</text></svg>