<svg viewBox="0 0 400 140" xmlns="http://www.w3.org/2000/svg" font-family="sans-serif"><rect width="400" height="140" rx="12" fill="#1c1c2e"/><circle cx="40" cy="70" r="28" fill="#f9731618" stroke="#f97316" stroke-width="1.5"/><text x="40" y="65" text-anchor="middle" font-size="20">🏭</text><text x="40" y="82" text-anchor="middle" font-size="9" fill="#f97316" font-weight="700">Net</text><line x1="68" y1="70" x2="112" y2="70" stroke="#f97316" stroke-width="2" marker-end="url(#a1)"/><circle cx="140" cy="70" r="28" fill="#6366f118" stroke="#6366f1" stroke-width="1.5"/><text x="140" y="65" text-anchor="middle" font-size="20">🏠</text><text x="140" y="82" text-anchor="middle" font-size="9" fill="#818cf8" font-weight="700">Verbruik</text><line x1="220" y1="42" x2="168" y2="56" stroke="#fbbf24" stroke-width="2" marker-end="url(#a2)"/><circle cx="240" cy="28" r="24" fill="#fbbf2418" stroke="#fbbf24" stroke-width="1.5"/><text x="240" y="23" text-anchor="middle" font-size="17">☀️</text><text x="240" y="38" text-anchor="middle" font-size="9" fill="#fbbf24" font-weight="700">Zonnestroom</text><circle cx="240" cy="110" r="24" fill="#22c55e18" stroke="#22c55e" stroke-width="1.5"/><text x="240" y="105" text-anchor="middle" font-size="17">🔋</text><text x="240" y="120" text-anchor="middle" font-size="9" fill="#4ade80" font-weight="700">Batterij</text><circle cx="330" cy="70" r="28" fill="#22c55e18" stroke="#22c55e" stroke-width="1.5"/><text x="330" y="65" text-anchor="middle" font-size="20">🚗</text><text x="330" y="82" text-anchor="middle" font-size="9" fill="#4ade80" font-weight="700">EV Laden</text><text x="200" y="135" text-anchor="middle" font-size="8" fill="#475569">CloudEMS beheert alle energiestromen automatisch</text><defs><marker id="a1" markerWidth="5" markerHeight="5" refX="4" refY="2.5" orient="auto"><path d="M0,0 L5,2.5 L0,5 Z" fill="#f97316"/></marker><marker id="a2" markerWidth="5" markerHeight="5" refX="4" refY="2.5" orient="auto"><path d="M0,0 L5,2.5 L0,5 Z" fill="#fbbf24"/></marker></defs></svg>