<svg xmlns="http://www.w3.org/2000/svg" viewBox="0 0 800 600" preserveAspectRatio="xMidYMid slice">
<g opacity="0.06" fill="none" stroke="#b0bec5" stroke-width="1.5">
  <!-- tandwiel groot -->
  <circle cx="400" cy="300" r="80"/>
  <circle cx="400" cy="300" r="45"/>
  <g>
    <rect x="388" y="200" width="24" height="30" rx="4"/>
    <rect x="388" y="370" width="24" height="30" rx="4"/>
    <rect x="300" y="288" width="30" height="24" rx="4"/>
    <rect x="470" y="288" width="30" height="24" rx="4"/>
    <rect x="330" y="226" width="24" height="30" rx="4" transform="rotate(45,342,241)"/>
    <rect x="446" y="344" width="24" height="30" rx="4" transform="rotate(45,458,359)"/>
    <rect x="330" y="344" width="24" height="30" rx="4" transform="rotate(-45,342,359)"/>
    <rect x="446" y="226" width="24" height="30" rx="4" transform="rotate(-45,458,241)"/>
  </g>
  <!-- kleine tandwielen -->
  <circle cx="160" cy="180" r="45"/>
  <circle cx="160" cy="180" r="25"/>
  <circle cx="620" cy="440" r="50"/>
  <circle cx="620" cy="440" r="28"/>
  <!-- verbinding lijn -->
  <line x1="200" y1="200" x2="330" y2="260" stroke-dasharray="6,4"/>
  <line x1="560" y1="420" x2="470" y2="360" stroke-dasharray="6,4"/>
  <!-- sleutelicoon linkonder -->
  <circle cx="120" cy="460" r="30"/>
  <rect x="148" y="455" width="80" height="12" rx="4"/>
  <rect x="200" y="467" width="12" height="20" rx="3"/>
  <rect x="220" y="467" width="12" height="15" rx="3"/>
</g>
</svg>