<svg xmlns="http://www.w3.org/2000/svg" viewBox="0 0 800 600" preserveAspectRatio="xMidYMid slice">
<g opacity="0.07" fill="none" stroke="#80cbc4" stroke-width="1.5">
  <!-- thermometer groot -->
  <rect x="370" y="80" width="60" height="280" rx="30"/>
  <circle cx="400" cy="390" r="45"/>
  <rect x="384" y="220" width="32" height="170" rx="16" fill="rgba(128,203,196,0.2)"/>
  <!-- maatstrepen -->
  <line x1="430" y1="120" x2="445" y2="120"/>
  <line x1="430" y1="160" x2="445" y2="160"/>
  <line x1="430" y1="200" x2="455" y2="200"/>
  <line x1="430" y1="240" x2="445" y2="240"/>
  <line x1="430" y1="280" x2="455" y2="280"/>
  <line x1="430" y1="320" x2="445" y2="320"/>
  <!-- luchtstroomgolven -->
  <path d="M 80 250 Q 140 220 200 250 Q 260 280 320 250" stroke-dasharray="5,3"/>
  <path d="M 80 310 Q 140 280 200 310 Q 260 340 320 310" stroke-dasharray="5,3"/>
  <path d="M 80 370 Q 140 340 200 370 Q 260 400 320 370" stroke-dasharray="5,3"/>
  <!-- sneeuwvlok rechts -->
  <circle cx="640" cy="150" r="4"/>
  <line x1="640" y1="110" x2="640" y2="190"/><line x1="600" y1="150" x2="680" y2="150"/>
  <line x1="612" y1="122" x2="668" y2="178"/><line x1="668" y1="122" x2="612" y2="178"/>
  <line x1="626" y1="111" x2="654" y2="111"/><line x1="626" y1="189" x2="654" y2="189"/>
  <line x1="601" y1="136" x2="601" y2="164"/><line x1="679" y1="136" x2="679" y2="164"/>
</g>
</svg>