<svg viewBox="0 0 420 130" xmlns="http://www.w3.org/2000/svg" font-family="sans-serif"><rect width="420" height="130" rx="12" fill="#1c1c2e"/><text x="210" y="20" text-anchor="middle" font-size="11" fill="#94a3b8" font-weight="600">Per omvormer: vermogen + richting + helling</text><rect x="20" y="40" width="50" height="35" rx="6" fill="#fbbf2420" stroke="#fbbf2466" stroke-width="1.5"/><rect x="28" y="47" width="15" height="20" rx="2" fill="#1e3a5f" stroke="#3b82f6" stroke-width="0.8"/><rect x="47" y="47" width="15" height="20" rx="2" fill="#1e3a5f" stroke="#3b82f6" stroke-width="0.8"/><text x="45" y="86" text-anchor="middle" font-size="7.5" fill="#fbbf24">Panelen</text><line x1="72" y1="58" x2="105" y2="58" stroke="#fbbf24" stroke-width="2" marker-end="url(#bi)"/><rect x="108" y="40" width="80" height="76" rx="9" fill="#1e293b" stroke="#6366f155" stroke-width="1.5"/><text x="148" y="62" text-anchor="middle" font-size="14">&#9889;</text><text x="148" y="76" text-anchor="middle" font-size="8" fill="#818cf8" font-weight="600">Omvormer</text><text x="148" y="92" text-anchor="middle" font-size="7" fill="#64748b">azimut: 180 Z</text><text x="148" y="106" text-anchor="middle" font-size="7" fill="#64748b">helling: 30 graden</text><rect x="210" y="40" width="190" height="76" rx="9" fill="#0f172a" stroke="#1e293b" stroke-width="1"/><text x="305" y="58" text-anchor="middle" font-size="8" fill="#94a3b8">Configuratie per omvormer</text><text x="222" y="73" font-size="7.5" fill="#94a3b8">Vermogenssensor (W of kW)</text><text x="222" y="87" font-size="7.5" fill="#94a3b8">Naam bijv. Dak Zuid</text><text x="222" y="101" font-size="7.5" fill="#94a3b8">Azimut: 0N 90O 180Z 270W</text><text x="222" y="115" font-size="7.5" fill="#94a3b8">Helling: 0=plat 90=verticaal</text><defs><marker id="bi" markerWidth="5" markerHeight="5" refX="4" refY="2.5" orient="auto"><path d="M0,0 L5,2.5 L0,5 Z" fill="#fbbf24"/></marker></defs></svg>