<svg xmlns="http://www.w3.org/2000/svg" viewBox="0 0 800 600" preserveAspectRatio="xMidYMid slice">
<g opacity="0.07" fill="none" stroke="#ff7043" stroke-width="1.5">
  <!-- boiler tank -->
  <ellipse cx="400" cy="140" rx="100" ry="30"/>
  <rect x="300" y="140" width="200" height="260"/>
  <ellipse cx="400" cy="400" rx="100" y="30"/>
  <ellipse cx="400" cy="400" rx="100" ry="30"/>
  <!-- aansluitingen -->
  <line x1="300" y1="200" x2="220" y2="200"/>
  <line x1="500" y1="200" x2="580" y2="200"/>
  <line x1="400" y1="430" x2="400" y2="520"/>
  <!-- vlammen -->
  <path d="M 360 500 Q 350 460 370 440 Q 360 460 380 450 Q 370 470 390 460 Q 380 480 400 470 Q 390 490 410 480 Q 400 500 420 490 Q 410 510 430 500 Q 420 480 440 470 Q 430 460 450 440 Q 440 460 440 500" stroke-width="1.5"/>
  <!-- stoomkringetjes -->
  <path d="M 350 100 Q 340 80 350 60 Q 360 40 350 20" stroke-dasharray="3,2"/>
  <path d="M 400 90 Q 390 70 400 50 Q 410 30 400 10" stroke-dasharray="3,2"/>
  <path d="M 450 100 Q 440 80 450 60 Q 460 40 450 20" stroke-dasharray="3,2"/>
  <!-- temperatuurmeter -->
  <rect x="600" y="150" width="30" height="180" rx="15"/>
  <circle cx="615" cy="350" r="20"/>
  <rect x="611" y="220" width="8" height="130" rx="4" fill="rgba(255,112,67,0.3)"/>
</g>
</svg>