<svg xmlns="http://www.w3.org/2000/svg" viewBox="0 0 800 600" preserveAspectRatio="xMidYMid slice">
<g opacity="0.07" fill="none" stroke="#29b6f6" stroke-width="1.5">
  <!-- golven -->
  <path d="M 0 200 Q 100 160 200 200 Q 300 240 400 200 Q 500 160 600 200 Q 700 240 800 200"/>
  <path d="M 0 260 Q 100 220 200 260 Q 300 300 400 260 Q 500 220 600 260 Q 700 300 800 260"/>
  <path d="M 0 320 Q 100 280 200 320 Q 300 360 400 320 Q 500 280 600 320 Q 700 360 800 320"/>
  <path d="M 0 380 Q 100 340 200 380 Q 300 420 400 380 Q 500 340 600 380 Q 700 420 800 380"/>
  <!-- laddertje -->
  <line x1="680" y1="100" x2="680" y2="400"/>
  <line x1="720" y1="100" x2="720" y2="400"/>
  <line x1="680" y1="160" x2="720" y2="160"/>
  <line x1="680" y1="220" x2="720" y2="220"/>
  <line x1="680" y1="280" x2="720" y2="280"/>
  <line x1="680" y1="340" x2="720" y2="340"/>
  <!-- zon -->
  <circle cx="120" cy="100" r="40"/>
  <line x1="120" y1="44" x2="120" y2="24"/>
  <line x1="120" y1="156" x2="120" y2="176"/>
  <line x1="64" y1="100" x2="44" y2="100"/>
  <line x1="176" y1="100" x2="196" y2="100"/>
  <line x1="82" y1="62" x2="68" y2="48"/>
  <line x1="158" y1="138" x2="172" y2="152"/>
</g>
</svg>