<svg xmlns="http://www.w3.org/2000/svg" viewBox="0 0 800 600" preserveAspectRatio="xMidYMid slice">
<g opacity="0.07" fill="none" stroke="#a5d6a7" stroke-width="1.5">
  <!-- auto silhouet -->
  <path d="M 120 350 L 160 280 L 260 250 L 520 250 L 620 280 L 680 350 L 680 420 L 120 420 Z" rx="8"/>
  <path d="M 190 250 L 220 200 L 480 200 L 510 250"/>
  <!-- wielen -->
  <circle cx="240" cy="420" r="50"/>
  <circle cx="240" cy="420" r="28"/>
  <circle cx="560" cy="420" r="50"/>
  <circle cx="560" cy="420" r="28"/>
  <!-- laadkabel -->
  <path d="M 680 340 Q 730 340 740 300 Q 750 260 720 240 L 700 240" stroke-width="2.5"/>
  <rect x="685" y="225" width="30" height="20" rx="3"/>
  <!-- bliksem op laadpaal -->
  <rect x="740" y="140" width="20" height="100" rx="4"/>
  <polyline points="752" y1="150" points="752,150 742,200 756,200 742,240" stroke-width="2"/>
  <polyline points="752,150 742,200 756,200 742,240" stroke-width="2"/>
  <!-- snelheidsstrepen -->
  <line x1="40" y1="300" x2="110" y2="300" stroke-dasharray="10,6"/>
  <line x1="40" y1="330" x2="100" y2="330" stroke-dasharray="8,6"/>
  <line x1="40" y1="360" x2="115" y2="360" stroke-dasharray="12,6"/>
</g>
</svg>