<svg xmlns="http://www.w3.org/2000/svg" viewBox="0 0 800 600" preserveAspectRatio="xMidYMid slice">
<g opacity="0.06" fill="none" stroke="#ce93d8" stroke-width="1.5">
  <!-- apparaten grid -->
  <!-- wasmachine -->
  <rect x="60" y="200" width="120" height="120" rx="8"/>
  <circle cx="120" cy="260" r="35"/>
  <circle cx="120" cy="260" r="20"/>
  <!-- koelkast -->
  <rect x="230" y="160" width="100" height="180" rx="6"/>
  <line x1="230" y1="250" x2="330" y2="250"/>
  <circle cx="318" cy="210" r="6"/>
  <!-- oven -->
  <rect x="380" y="200" width="120" height="100" rx="6"/>
  <rect x="393" y="213" width="94" height="74" rx="4"/>
  <circle cx="418" cy="185" r="8"/>
  <circle cx="458" cy="185" r="8"/>
  <circle cx="498" cy="185" r="8"/>
  <!-- warmtepomp -->
  <rect x="550" y="160" width="140" height="120" rx="8"/>
  <circle cx="620" cy="220" r="30"/>
  <line x1="610" y1="180" x2="620" y2="190"/>
  <line x1="630" y1="180" x2="620" y2="190"/>
  <!-- verbindingslijnen naar centraal punt -->
  <circle cx="400" cy="440" r="15"/>
  <line x1="120" y1="320" x2="400" y2="440" stroke-dasharray="5,4"/>
  <line x1="280" y1="340" x2="400" y2="440" stroke-dasharray="5,4"/>
  <line x1="440" y1="300" x2="400" y2="440" stroke-dasharray="5,4"/>
  <line x1="620" y1="280" x2="400" y2="440" stroke-dasharray="5,4"/>
</g>
</svg>