<svg xmlns="http://www.w3.org/2000/svg" viewBox="0 0 800 600" preserveAspectRatio="xMidYMid slice">
<g opacity="0.07" fill="none" stroke="#ffcc00" stroke-width="1.5">
  <!-- zon rechtsboven -->
  <circle cx="660" cy="100" r="55"/>
  <line x1="660" y1="28" x2="660" y2="8"/>
  <line x1="660" y1="172" x2="660" y2="192"/>
  <line x1="588" y1="100" x2="568" y2="100"/>
  <line x1="732" y1="100" x2="752" y2="100"/>
  <line x1="609" y1="49" x2="595" y2="35"/>
  <line x1="711" y1="151" x2="725" y2="165"/>
  <line x1="711" y1="49" x2="725" y2="35"/>
  <line x1="609" y1="151" x2="595" y2="165"/>
  <!-- zonnepanelen raster -->
  <g transform="translate(60,200) rotate(-8)">
    <rect x="0" y="0" width="280" height="180" rx="4"/>
    <line x1="0" y1="60" x2="280" y2="60"/>
    <line x1="0" y1="120" x2="280" y2="120"/>
    <line x1="70" y1="0" x2="70" y2="180"/>
    <line x1="140" y1="0" x2="140" y2="180"/>
    <line x1="210" y1="0" x2="210" y2="180"/>
  </g>
  <!-- sinusgolf output -->
  <path d="M 60 480 Q 130 420 200 480 Q 270 540 340 480 Q 410 420 480 480 Q 550 540 620 480 Q 690 420 760 480" stroke-width="2"/>
</g>
</svg>